<svg width="82" height="86" viewBox="0 0 82 86" fill="none" xmlns="http://www.w3.org/2000/svg">
<path d="M79.452 16.8551L44.7853 0.29506C44.4236 0.120307 44.0271 0.029541 43.6253 0.029541C43.2236 0.029541 42.8271 0.120307 42.4653 0.29506L2.46533 19.6017C2.01154 19.8179 1.62807 20.1578 1.35913 20.5825C1.0902 21.0071 0.946752 21.4991 0.945329 22.0017V66.1351C0.943516 66.6555 1.09404 67.1651 1.37835 67.6011C1.66266 68.037 2.06832 68.3802 2.54533 68.5884L37.212 85.0951C37.5737 85.2698 37.9703 85.3606 38.372 85.3606C38.7737 85.3606 39.1703 85.2698 39.532 85.0951L79.532 65.7884C79.9858 65.5723 80.3693 65.2323 80.6382 64.8077C80.9071 64.383 81.0506 63.891 81.052 63.3884V19.2551C81.0435 18.7437 80.8882 18.2456 80.6045 17.8201C80.3208 17.3945 79.9208 17.0596 79.452 16.8551ZM43.6387 5.65506L72.7853 19.5751L59.3187 26.0817L30.8653 11.8151L43.6387 5.65506ZM38.3053 36.2951L8.972 22.3484L24.7053 14.7484L53.2387 29.0151L38.3053 36.2951ZM6.30533 26.9351L35.6387 40.9884V78.4817L6.30533 64.4551V26.9351ZM40.972 78.4551V40.8817L75.6387 24.1084V61.7084L40.972 78.4551Z" fill="#F09EB3"/>
</svg>
