<svg width="18" height="16" viewBox="0 0 18 16" fill="none" xmlns="http://www.w3.org/2000/svg">
<path
d="M10.9061 15.5996C11.4034 15.5996 11.8803 15.4021 12.232 15.0504C12.5836 14.6988 12.7811 14.2219 12.7811 13.7246C12.7811 13.2273 12.5836 12.7504 12.232 12.3988C11.8803 12.0472 11.4034 11.8496 10.9061 11.8496C10.4089 11.8496 9.93195 12.0472 9.58032 12.3988C9.22869 12.7504 9.03115 13.2273 9.03115 13.7246C9.03115 14.2219 9.22869 14.6988 9.58032 15.0504C9.93195 15.4021 10.4089 15.5996 10.9061 15.5996ZM4.34365 15.5996C4.84093 15.5996 5.31784 15.4021 5.66947 15.0504C6.0211 14.6988 6.21865 14.2219 6.21865 13.7246C6.21865 13.2273 6.0211 12.7504 5.66947 12.3988C5.31784 12.0472 4.84093 11.8496 4.34365 11.8496C3.84636 11.8496 3.36945 12.0472 3.01782 12.3988C2.66619 12.7504 2.46865 13.2273 2.46865 13.7246C2.46865 14.2219 2.66619 14.6988 3.01782 15.0504C3.36945 15.4021 3.84636 15.5996 4.34365 15.5996ZM16.5668 2.40242C16.8008 2.39487 17.0227 2.2966 17.1856 2.12837C17.3485 1.96015 17.4396 1.73517 17.4396 1.50102C17.4396 1.26686 17.3485 1.04188 17.1856 0.873657C17.0227 0.705435 16.8008 0.607158 16.5668 0.599609H15.4877C14.6421 0.599609 13.9108 1.18648 13.7271 2.01148L12.5524 7.30086C12.3686 8.12586 11.6374 8.71273 10.7918 8.71273H3.74927L2.3974 3.30336H11.1583C11.3902 3.29278 11.609 3.19324 11.7693 3.02544C11.9296 2.85764 12.0191 2.6345 12.0191 2.40242C12.0191 2.17035 11.9296 1.9472 11.7693 1.7794C11.609 1.6116 11.3902 1.51206 11.1583 1.50148H2.3974C2.12333 1.5014 1.85286 1.56381 1.60653 1.68395C1.36021 1.8041 1.14452 1.97882 0.975863 2.19484C0.807203 2.41087 0.690014 2.6625 0.633205 2.93061C0.576397 3.19872 0.581465 3.47625 0.648022 3.74211L1.9999 9.14961C2.09735 9.53979 2.32248 9.88619 2.63947 10.1337C2.95645 10.3812 3.3471 10.5156 3.74927 10.5155H10.7918C11.6123 10.5157 12.4083 10.2359 13.0483 9.72252C13.6884 9.20912 14.1342 8.49278 14.3121 7.6918L15.4877 2.40242H16.5668Z"
fill="white"
/>
</svg>