<svg width="96" height="97" viewBox="0 0 96 97" fill="none" xmlns="http://www.w3.org/2000/svg">
<path fill-rule="evenodd" clip-rule="evenodd" d="M30 10.9554C28.0109 10.9554 26.1032 11.7456 24.6967 13.1521C23.2902 14.5587 22.5 16.4663 22.5 18.4554C22.5 20.4446 23.2902 22.3522 24.6967 23.7587C26.1032 25.1653 28.0109 25.9554 30 25.9554H44.7316C44.1687 24.199 43.3015 21.9186 42.0595 19.6602C39.4558 14.9263 35.6098 10.9554 30 10.9554ZM17.5 18.4554C17.5 21.1757 18.3867 23.8045 19.9999 25.9554H8C6.61929 25.9554 5.5 27.0747 5.5 28.4554V48.4554C5.5 49.8362 6.61929 50.9554 8 50.9554H13.5V88.4554C13.5 89.8362 14.6193 90.9554 16 90.9554H48H80C81.3807 90.9554 82.5 89.8362 82.5 88.4554V50.9554H88C89.3807 50.9554 90.5 49.8362 90.5 48.4554V28.4554C90.5 27.0747 89.3807 25.9554 88 25.9554H76.0001C77.6133 23.8045 78.5 21.1757 78.5 18.4554C78.5 15.1402 77.183 11.9608 74.8388 9.61661C72.4946 7.2724 69.3152 5.95544 66 5.95544C57.6098 5.95544 52.4558 11.9846 49.5595 17.2506C48.9638 18.3336 48.4464 19.4128 48 20.4448C47.5536 19.4128 47.0362 18.3336 46.4405 17.2506C43.5442 11.9846 38.3903 5.95544 30 5.95544C26.6848 5.95544 23.5054 7.2724 21.1612 9.61661C18.817 11.9608 17.5 15.1402 17.5 18.4554ZM51.2684 25.9554H66C67.9891 25.9554 69.8968 25.1653 71.3033 23.7587C72.7098 22.3522 73.5 20.4446 73.5 18.4554C73.5 16.4663 72.7098 14.5587 71.3033 13.1521C69.8968 11.7456 67.9891 10.9554 66 10.9554C60.3902 10.9554 56.5442 14.9263 53.9405 19.6602C52.6985 21.9186 51.8313 24.199 51.2684 25.9554ZM50.5 30.9554V45.9554H80H85.5V30.9554H66H50.5ZM30 30.9554H45.5V45.9554H16H10.5V30.9554H30ZM50.5 85.9554H77.5V50.9554H50.5V85.9554ZM45.5 50.9554V85.9554H18.5V50.9554H45.5Z" fill="#E5194D" fill-opacity="0.3"/>
</svg>
