<svg width="16" height="16" viewBox="0 0 16 16" fill="none" xmlns="http://www.w3.org/2000/svg">
<path d="M8.45141 0.599636C5.79153 0.592659 3.45084 1.96882 2.11305 4.04789C2.05375 4.14033 2.12003 4.26242 2.22991 4.26242H3.45607C3.53979 4.26242 3.61828 4.22579 3.67061 4.16126C3.7927 4.013 3.92351 3.86998 4.0613 3.73393C4.62991 3.16707 5.29095 2.72056 6.027 2.4101C6.78746 2.08917 7.59676 1.92521 8.43223 1.92521C9.26769 1.92521 10.077 2.08742 10.8375 2.4101C11.5735 2.72056 12.2345 3.16707 12.8031 3.73393C13.3718 4.30079 13.8165 4.96184 14.1287 5.69614C14.4514 6.4566 14.6136 7.26416 14.6136 8.09962C14.6136 8.93509 14.4497 9.74264 14.1287 10.5031C13.8183 11.2374 13.3718 11.8985 12.8031 12.4653C12.2345 13.0322 11.5735 13.4787 10.8375 13.7891C10.0764 14.1106 9.25839 14.2755 8.43223 14.274C7.59676 14.274 6.78746 14.1101 6.027 13.7891C5.2924 13.479 4.62486 13.0294 4.0613 12.4653C3.92351 12.3275 3.79444 12.1845 3.67061 12.038C3.61828 11.9735 3.53805 11.9368 3.45607 11.9368H2.22991C2.12003 11.9368 2.052 12.0589 2.11305 12.1514C3.44909 14.2252 5.77932 15.5996 8.43223 15.5996C12.552 15.5996 15.8973 12.2839 15.9392 8.17637C15.981 4.00254 12.6305 0.610101 8.45141 0.599636ZM6.24188 10.0531V8.72753H0.765145C0.688401 8.72753 0.62561 8.66474 0.62561 8.58799V7.61125C0.62561 7.53451 0.688401 7.47172 0.765145 7.47172H6.24188V6.14614C6.24188 6.02928 6.37793 5.963 6.46862 6.03625L8.94362 7.98974C8.9603 8.00279 8.97378 8.01947 8.98306 8.03851C8.99234 8.05754 8.99716 8.07844 8.99716 8.09962C8.99716 8.1208 8.99234 8.1417 8.98306 8.16074C8.97378 8.17978 8.9603 8.19645 8.94362 8.20951L6.46862 10.163C6.37793 10.2345 6.24188 10.17 6.24188 10.0531Z" fill="white"/>
</svg>
