<svg width="84" height="86" viewBox="0 0 84 86" fill="none" xmlns="http://www.w3.org/2000/svg">
<path d="M81.949 2.4148C81.7022 1.79994 81.2277 1.30393 80.6245 1.02996C80.0212 0.755995 79.3355 0.725158 78.7101 0.943867C78.0846 1.16258 77.5676 1.61399 77.2665 2.20421C76.9655 2.79442 76.9035 3.47799 77.0936 4.11271C81.0469 15.4747 73.1999 23.96 67.2168 28.5048L64.7997 25.0409C63.9869 23.8791 62.1699 22.9131 60.7571 22.8961L47.1908 22.9557C45.5335 23.0058 43.9206 23.5027 42.5226 24.394L2.54719 52.4245C1.61736 53.0788 0.984679 54.0749 0.78768 55.1947C0.590681 56.3145 0.845411 57.4667 1.4961 58.3991L19.6625 84.3912C21.0242 86.3274 23.1987 86.0933 25.1392 84.7401L65.1146 56.7054C66.2636 55.8926 67.5913 54.1394 68.0594 52.7989L72.3063 39.4157C72.7744 38.0795 72.4892 36.0411 71.6765 34.8794L70.2041 32.7687C78.2383 26.6111 86.5789 15.73 81.949 2.4148ZM63.3486 42.237C62.6122 42.7525 61.7814 43.1178 60.9037 43.3122C60.026 43.5065 59.1186 43.5259 58.2334 43.3694C57.3482 43.2129 56.5025 42.8836 55.7446 42.4001C54.9867 41.9167 54.3315 41.2886 53.8165 40.5519C52.7736 39.061 52.3648 37.2173 52.68 35.4253C52.9951 33.6334 54.0084 32.0398 55.4974 30.9942C56.6646 30.1764 58.0583 29.7437 59.4835 29.7567C60.9087 29.7696 62.2943 30.2276 63.4465 31.0665C62.289 31.7644 61.4932 32.1729 61.3443 32.2368C60.8168 32.4883 60.3904 32.9115 60.1349 33.4371C59.8794 33.9627 59.81 34.5595 59.9381 35.1297C60.0662 35.6999 60.3841 36.2097 60.8399 36.5755C61.2956 36.9413 61.8621 37.1415 62.4465 37.1433C62.8124 37.1433 63.1869 37.0582 63.5401 36.8922C64.3657 36.5007 65.2508 36.0369 66.1742 35.4879C66.3866 36.7648 66.2341 38.0757 65.7342 39.2697C65.2343 40.4637 64.4074 41.4923 63.3486 42.237Z" fill="#F09EB3"/>
</svg>
